<svg width="32" xmlns="http://www.w3.org/2000/svg" height="32" fill="none"><g style="fill: rgb(0, 0, 0);"><rect rx="0" ry="0" x="9.75" y="12.25" transform="matrix(1.000000, 0.000000, 0.000000, 1.000000, 0.000000, 0.000000)" width="12.5" height="9" style="fill: rgb(255, 255, 255); fill-opacity: 1;" class="fills"/><path d="M16.000,5.000C22.066,5.000,27.000,9.935,27.000,16.000C27.000,22.065,22.066,27.000,16.000,27.000C9.935,27.000,5.000,22.065,5.000,16.000C5.000,9.935,9.935,5.000,16.000,5.000ZZM21.181,14.439C21.572,14.048,21.572,13.416,21.181,13.025C20.791,12.635,20.158,12.635,19.767,13.025L15.207,17.586L12.655,15.034C12.265,14.644,11.632,14.644,11.241,15.034C10.851,15.425,10.851,16.058,11.241,16.448L14.499,19.707C14.687,19.894,14.942,20.000,15.207,20.000C15.471,20.000,15.726,19.894,15.914,19.707L21.181,14.439ZZ" style="fill: rgb(1, 27, 26); fill-opacity: 1;" class="fills"/></g></svg>