<svg width="64" xmlns="http://www.w3.org/2000/svg" height="64" fill="none"><defs><clipPath id="a" class="frame-clip frame-clip-def"><rect rx="0" ry="0" width="64" height="64" transform="matrix(1.000000, 0.000000, 0.000000, 1.000000, 0.000000, 0.000000)"/></clipPath></defs><g class="frame-container-wrapper"><g class="frame-container-blur"><g clip-path="url(#a)" class="frame-container-shadows"><g class="fills"><rect width="64" height="64" class="frame-background" transform="matrix(1.000000, 0.000000, 0.000000, 1.000000, 0.000000, 0.000000)" style="fill: rgb(255, 255, 255); fill-opacity: 1;" ry="0" rx="0"/></g><g style="fill: rgb(0, 0, 0);" class="frame-children"><path d="M43.150,27.725C42.575,27.675,41.475,27.975,40.975,30.425C40.975,31.900,41.325,32.800,41.875,33.125C42.900,33.425,44.100,32.050,44.100,30.575C44.150,29.550,44.200,28.275,43.150,27.725Z" style="fill: rgb(61, 204, 199); fill-opacity: 1;" class="fills"/><path d="M45.075,22.450L18.925,22.450C17.300,22.450,16.000,23.750,16.000,25.350L16.000,35.350C16.000,36.950,17.300,38.275,18.925,38.275L45.100,38.275C46.700,38.275,48.025,36.975,48.025,35.350L48.025,25.350C48.000,23.750,46.700,22.450,45.075,22.450ZM27.000,36.000C27.000,36.000,25.275,33.725,24.875,32.000C24.475,30.300,24.375,31.075,24.375,31.075C24.375,31.075,23.000,34.175,21.575,36.150C20.150,38.125,19.450,35.175,19.450,35.175C18.950,34.575,17.525,25.850,17.525,25.850C18.325,23.625,19.700,25.450,19.700,25.450L21.075,32.550C21.075,32.550,23.200,28.200,23.925,27.075C24.625,25.950,25.850,26.275,25.950,27.425C26.050,28.600,27.225,31.775,27.225,31.775C27.325,28.425,28.700,25.225,28.900,24.725C29.100,24.225,31.325,23.600,30.925,25.750C29.950,28.125,29.000,33.150,29.250,35.900C28.575,37.975,27.000,36.000,27.000,36.000ZM35.975,34.875C35.325,35.175,32.900,36.850,31.175,33.100C30.100,29.325,32.500,26.550,32.500,26.550C32.500,26.550,35.625,23.875,37.750,27.425C39.475,31.325,36.625,34.575,35.975,34.875ZM43.925,34.875C43.275,35.175,40.850,36.850,39.125,33.100C38.050,29.325,40.450,26.550,40.450,26.550C40.450,26.550,43.600,23.850,45.725,27.400C47.450,31.325,44.575,34.575,43.925,34.875Z" style="fill: rgb(61, 204, 199); fill-opacity: 1;" class="fills"/><path d="M35.175,27.725C34.600,27.675,33.500,27.975,33.000,30.425C33.000,31.900,33.350,32.800,33.900,33.125C34.925,33.425,36.125,32.050,36.125,30.575C36.200,29.550,36.250,28.275,35.175,27.725ZM31.325,38.275L36.900,41.550L35.725,38.275L32.525,37.375Z" style="fill: rgb(61, 204, 199); fill-opacity: 1;" class="fills"/></g></g></g></g></svg>