<svg width="64" xmlns="http://www.w3.org/2000/svg" height="64" fill="none"><g class="fills"><rect rx="0" ry="0" width="64" height="64" transform="matrix(1.000000, 0.000000, 0.000000, 1.000000, 0.000000, 0.000000)" class="frame-background"/></g><g class="frame-children"><rect rx="12" ry="12" transform="matrix(1.000000, 0.000000, 0.000000, 1.000000, 0.000000, 0.000000)" width="64" height="64" style="fill: rgb(231, 249, 248); fill-opacity: 1;" class="fills"/><g class="fills"><rect rx="0" ry="0" x="12" y="12" width="40" height="40" transform="matrix(1.000000, 0.000000, 0.000000, 1.000000, 0.000000, 0.000000)" class="frame-background"/></g><g style="fill: rgb(0, 0, 0);" class="frame-children"><path d="M25.750,29.392L33.250,36.892L33.250,46.375C33.250,46.720,32.970,47.000,32.625,47.000L19.500,47.000C18.119,47.000,17.000,45.881,17.000,44.500L17.000,19.500C17.000,18.119,18.119,17.000,19.500,17.000L22.625,17.000C22.970,17.000,23.250,17.280,23.250,17.625L23.250,35.966C21.528,36.574,20.495,38.335,20.804,40.135C21.113,41.935,22.674,43.251,24.500,43.251C26.326,43.251,27.887,41.935,28.196,40.135C28.505,38.335,27.472,36.574,25.750,35.966ZM24.500,40.750C25.190,40.750,25.750,40.190,25.750,39.500C25.750,38.810,25.190,38.250,24.500,38.250C23.810,38.250,23.250,38.810,23.250,39.500C23.250,40.190,23.810,40.750,24.500,40.750ZZM40.750,28.250C40.750,27.560,40.190,27.000,39.500,27.000C38.810,27.000,38.250,27.560,38.250,28.250C38.250,28.940,38.810,29.500,39.500,29.500C40.190,29.500,40.750,28.940,40.750,28.250ZZM44.500,17.000L36.375,17.000C36.030,17.000,35.750,17.280,35.750,17.625L35.750,22.733L37.884,24.867C39.532,24.080,41.508,24.594,42.563,26.086C43.617,27.577,43.444,29.611,42.153,30.903C40.861,32.194,38.827,32.367,37.336,31.313C35.844,30.258,35.330,28.282,36.117,26.634L33.617,24.134C33.382,23.900,33.250,23.582,33.250,23.250L33.250,17.625C33.250,17.280,32.970,17.000,32.625,17.000L26.375,17.000C26.030,17.000,25.750,17.280,25.750,17.625L25.750,25.858L35.384,35.491C35.619,35.725,35.750,36.043,35.750,36.375L35.750,46.375C35.750,46.720,36.030,47.000,36.375,47.000L44.500,47.000C45.881,47.000,47.000,45.881,47.000,44.500L47.000,19.500C47.000,18.119,45.881,17.000,44.500,17.000ZZ" style="fill: rgb(61, 204, 199); fill-opacity: 1;" class="fills"/></g></g></svg>