<svg width="64" xmlns="http://www.w3.org/2000/svg" height="64" id="screenshot-98584daf-3c7c-8059-8006-086439da40cb" viewBox="0 0 64 64" xmlns:xlink="http://www.w3.org/1999/xlink" fill="none" version="1.1"><g id="shape-98584daf-3c7c-8059-8006-086439da40cb"><defs><clipPath id="frame-clip-98584daf-3c7c-8059-8006-086439da40cb-render-1" class="frame-clip frame-clip-def"><rect rx="0" ry="0" x="0" y="0" width="64" height="64" transform="matrix(1.000000, 0.000000, 0.000000, 1.000000, 0.000000, 0.000000)"/></clipPath></defs><g class="frame-container-wrapper"><g class="frame-container-blur"><g class="frame-container-shadows"><g clip-path="url(#frame-clip-98584daf-3c7c-8059-8006-086439da40cb-render-1)" fill="none"><g class="fills" id="fills-98584daf-3c7c-8059-8006-086439da40cb"><rect width="64" height="64" class="frame-background" x="0" transform="matrix(1.000000, 0.000000, 0.000000, 1.000000, 0.000000, 0.000000)" style="fill: rgb(255, 255, 255); fill-opacity: 1;" ry="0" rx="0" y="0"/></g><g class="frame-children"><g id="shape-98584daf-3c7c-8059-8006-086460ce4d38" width="32" height="32" rx="0" ry="0" style="fill: rgb(0, 0, 0);"><g id="shape-98584daf-3c7c-8059-8006-086460d0feb2" style="display: none;"><g class="fills" id="fills-98584daf-3c7c-8059-8006-086460d0feb2"><rect width="55.996500218736514" height="56" x="4" transform="matrix(1.000000, 0.000000, 0.000000, 1.000000, 0.000000, 0.000000)" style="fill: rgb(61, 204, 199); fill-opacity: 1;" ry="0" fill="none" rx="0" y="4"/></g></g><g id="shape-98584daf-3c7c-8059-8006-086460d2b1ed"><g class="fills" id="fills-98584daf-3c7c-8059-8006-086460d2b1ed"><path d="M32.758,22.350C36.005,17.958,39.596,14.500,44.188,14.500C52.857,14.500,59.997,25.535,60.000,38.674C60.000,46.689,56.549,51.712,50.351,51.712C44.951,51.712,41.969,48.681,36.618,39.728L34.284,35.798L33.871,35.108C33.262,34.079,32.644,33.056,32.016,32.039L27.893,39.318C22.038,49.556,18.741,51.712,14.163,51.712C7.801,51.712,4.000,46.760,4.000,38.905C4.000,26.358,10.982,14.500,20.092,14.500C21.205,14.498,22.283,14.640,23.326,14.927C24.411,15.228,25.464,15.697,26.521,16.351C28.540,17.608,30.560,19.554,32.758,22.350ZM38.063,30.135C37.181,28.702,36.333,27.380,35.519,26.169L35.498,26.141C38.455,21.573,40.898,19.302,43.800,19.302C49.830,19.302,54.656,28.182,54.656,39.088C54.656,43.245,53.291,45.657,50.474,45.657C47.768,45.657,46.477,43.872,41.339,35.612ZM20.960,20.646C23.497,20.996,25.807,22.865,29.149,27.650C27.221,30.603,25.313,33.570,23.427,36.550C18.678,43.991,17.037,45.660,14.394,45.660C11.675,45.660,10.055,43.274,10.055,39.010C10.055,29.904,14.597,20.587,20.015,20.587C20.332,20.587,20.647,20.607,20.960,20.646ZZ" fill-rule="evenodd" style="fill: rgb(61, 204, 199); fill-opacity: 1;"/></g></g></g></g></g></g></g></g></g></svg>