<svg width="64" xmlns="http://www.w3.org/2000/svg" height="64" fill="none"><g class="fills"><rect rx="0" ry="0" width="64" height="64" transform="matrix(1.000000, 0.000000, 0.000000, 1.000000, 0.000000, 0.000000)" class="frame-background"/></g><g class="frame-children"><rect rx="12" ry="12" transform="matrix(1.000000, 0.000000, 0.000000, 1.000000, 0.000000, 0.000000)" width="64" height="64" style="fill: rgb(231, 249, 248); fill-opacity: 1;" class="fills"/><g class="fills"><rect rx="0" ry="0" x="12" y="12" width="40" height="40" transform="matrix(1.000000, 0.000000, 0.000000, 1.000000, 0.000000, 0.000000)" class="frame-background"/></g><g style="fill: rgb(0, 0, 0);" class="frame-children"><path d="M32.000,15.750C23.025,15.750,15.750,23.025,15.750,32.000C15.750,40.975,23.025,48.250,32.000,48.250C40.975,48.250,48.250,40.975,48.250,32.000C48.241,23.029,40.971,15.759,32.000,15.750ZZM26.375,27.000C27.411,27.000,28.250,27.839,28.250,28.875C28.250,29.911,27.411,30.750,26.375,30.750C25.339,30.750,24.500,29.911,24.500,28.875C24.500,27.839,25.339,27.000,26.375,27.000ZZM39.331,36.375C37.723,39.155,35.052,40.750,32.000,40.750C28.948,40.750,26.277,39.156,24.669,36.375C24.422,35.988,24.408,35.496,24.632,35.095C24.856,34.694,25.281,34.448,25.741,34.455C26.200,34.461,26.618,34.718,26.831,35.125C27.998,37.142,29.833,38.250,32.000,38.250C34.167,38.250,36.002,37.141,37.169,35.125C37.382,34.718,37.800,34.461,38.259,34.455C38.719,34.448,39.144,34.694,39.368,35.095C39.592,35.496,39.578,35.988,39.331,36.375ZZM37.625,30.750C36.589,30.750,35.750,29.911,35.750,28.875C35.750,27.839,36.589,27.000,37.625,27.000C38.661,27.000,39.500,27.839,39.500,28.875C39.500,29.911,38.661,30.750,37.625,30.750ZZ" style="fill: rgb(61, 204, 199); fill-opacity: 1;" class="fills"/></g></g></svg>