<svg width="64" xmlns="http://www.w3.org/2000/svg" height="64" fill="none"><defs><clipPath id="a" class="frame-clip frame-clip-def"><rect rx="0" ry="0" width="64" height="64" transform="matrix(1.000000, 0.000000, 0.000000, 1.000000, 0.000000, 0.000000)"/></clipPath></defs><g class="frame-container-wrapper"><g class="frame-container-blur"><g clip-path="url(#a)" class="frame-container-shadows"><g class="fills"><rect width="64" height="64" class="frame-background" transform="matrix(1.000000, 0.000000, 0.000000, 1.000000, 0.000000, 0.000000)" style="fill: rgb(255, 255, 255); fill-opacity: 1;" ry="0" rx="0"/></g><g style="fill: rgb(0, 0, 0);" class="frame-children"><path d="M47.090,29.116C47.277,30.190,47.370,31.278,47.368,32.368C47.368,37.236,45.628,41.352,42.600,44.138L42.604,44.138C39.956,46.584,36.316,48.000,32.000,48.000C23.163,48.000,16.000,40.837,16.000,32.000C16.000,23.163,23.163,16.000,32.000,16.000C35.971,15.956,39.806,17.448,42.704,20.164L38.136,24.732C36.484,23.159,34.281,22.297,32.000,22.332C27.826,22.332,24.280,25.148,23.016,28.940C22.347,30.927,22.347,33.079,23.016,35.066L23.022,35.066C24.292,38.852,27.832,41.668,32.006,41.668C34.162,41.668,36.014,41.116,37.450,40.140L37.444,40.140C39.129,39.024,40.285,37.267,40.642,35.278L32.000,35.278L32.000,29.118Z" style="fill: rgb(61, 204, 199); fill-opacity: 1;" class="fills"/></g></g></g></g></svg>