<svg width="64" xmlns="http://www.w3.org/2000/svg" height="64" id="screenshot-98584daf-3c7c-8059-8006-08636e5b225c" viewBox="0 0 64 64" xmlns:xlink="http://www.w3.org/1999/xlink" fill="none" version="1.1"><g id="shape-98584daf-3c7c-8059-8006-08636e5b225c"><defs><clipPath id="frame-clip-98584daf-3c7c-8059-8006-08636e5b225c-render-1" class="frame-clip frame-clip-def"><rect rx="0" ry="0" x="0" y="0" width="64" height="64" transform="matrix(1.000000, 0.000000, 0.000000, 1.000000, 0.000000, 0.000000)"/></clipPath></defs><g class="frame-container-wrapper"><g class="frame-container-blur"><g class="frame-container-shadows"><g clip-path="url(#frame-clip-98584daf-3c7c-8059-8006-08636e5b225c-render-1)" fill="none"><g class="fills" id="fills-98584daf-3c7c-8059-8006-08636e5b225c"><rect width="64" height="64" class="frame-background" x="0" transform="matrix(1.000000, 0.000000, 0.000000, 1.000000, 0.000000, 0.000000)" style="fill: rgb(255, 255, 255); fill-opacity: 1;" ry="0" rx="0" y="0"/></g><g class="frame-children"><g id="shape-98584daf-3c7c-8059-8006-086470d02543" width="32" height="32" rx="0" ry="0" style="fill: rgb(0, 0, 0);"><g id="shape-98584daf-3c7c-8059-8006-086470d1b0c2" style="display: none;"><g class="fills" id="fills-98584daf-3c7c-8059-8006-086470d1b0c2"><rect width="56" height="56" x="4" transform="matrix(1.000000, 0.000000, 0.000000, 1.000000, 0.000000, 0.000000)" style="fill: rgb(61, 204, 199); fill-opacity: 1;" ry="0" fill="none" rx="0" y="4"/></g></g><g id="shape-98584daf-3c7c-8059-8006-086470d20dc4"><g class="fills" id="fills-98584daf-3c7c-8059-8006-086470d20dc4"><path d="M48.216,30.785C48.216,27.818,47.148,25.763,46.235,24.163L45.955,23.709C44.845,21.924,43.875,20.356,43.875,18.529C43.875,16.323,45.548,14.265,47.908,14.265C47.977,14.265,48.045,14.269,48.111,14.276L48.219,14.287C43.795,10.224,38.006,7.973,32.000,7.979C23.914,7.979,16.371,12.047,11.931,18.805C12.491,18.822,13.026,18.837,13.478,18.837C15.987,18.837,19.876,18.532,19.876,18.532C21.171,18.455,21.325,20.356,20.030,20.510C20.030,20.510,18.732,20.663,17.283,20.737L26.033,46.756L31.283,30.985L27.538,20.733C26.246,20.657,25.021,20.506,25.021,20.506C23.726,20.429,23.880,18.448,25.171,18.525C25.171,18.525,29.140,18.830,31.499,18.830C34.013,18.830,37.905,18.525,37.905,18.525C39.200,18.448,39.350,20.352,38.055,20.506C38.055,20.506,36.753,20.657,35.307,20.733L43.987,46.553L46.381,38.549L46.571,37.943C47.515,34.933,48.212,32.710,48.216,30.785ZZM7.979,32.000C7.976,41.205,13.234,49.601,21.517,53.616L10.055,22.221C8.679,25.297,7.971,28.630,7.979,32.000Z" style="fill: rgb(61, 204, 199); fill-opacity: 1;"/></g></g><g id="shape-98584daf-3c7c-8059-8006-086470d380a3"><g class="fills" id="fills-98584daf-3c7c-8059-8006-086470d380a3"><path d="M25.213,55.041L32.423,34.100L39.805,54.330C39.852,54.447,39.909,54.556,39.976,54.659C35.218,56.336,30.052,56.470,25.213,55.041ZM53.073,20.475C53.181,21.240,53.236,22.064,53.238,22.946C53.238,25.381,52.783,28.122,51.411,31.549L44.075,52.759C55.333,46.218,59.326,31.897,53.073,20.475ZZ" style="fill: rgb(61, 204, 199); fill-opacity: 1;"/></g></g><g id="shape-98584daf-3c7c-8059-8006-086470d3d9a8"><g class="fills" id="fills-98584daf-3c7c-8059-8006-086470d3d9a8"><path d="M4.000,32.000C4.000,16.561,16.562,4.000,32.000,4.000C47.438,4.000,60.000,16.561,60.000,32.000C60.000,47.439,47.435,60.000,32.000,60.000C16.565,60.000,4.000,47.439,4.000,32.000ZM5.284,32.000C5.284,46.732,17.268,58.716,32.000,58.716C46.732,58.716,58.712,46.732,58.712,32.000C58.712,17.265,46.728,5.284,32.000,5.284C17.265,5.284,5.284,17.265,5.284,32.000Z" fill-rule="evenodd" style="fill: rgb(61, 204, 199); fill-opacity: 1;"/></g></g></g></g></g></g></g></g></g></svg>