<svg width="64" xmlns="http://www.w3.org/2000/svg" height="64" fill="none"><g class="fills"><rect rx="0" ry="0" width="64" height="64" transform="matrix(1.000000, 0.000000, 0.000000, 1.000000, 0.000000, 0.000000)" class="frame-background"/></g><g class="frame-children"><rect rx="12" ry="12" transform="matrix(1.000000, 0.000000, 0.000000, 1.000000, 0.000000, 0.000000)" width="64" height="64" style="fill: rgb(231, 249, 248); fill-opacity: 1;" class="fills"/><g class="fills"><rect rx="0" ry="0" x="12" y="12" width="40" height="40" transform="matrix(1.000000, 0.000000, 0.000000, 1.000000, 0.000000, 0.000000)" class="frame-background"/></g><g style="fill: rgb(0, 0, 0);" class="frame-children"><path d="M44.500,17.000L19.500,17.000C18.119,17.000,17.000,18.119,17.000,19.500L17.000,44.500C17.000,45.881,18.119,47.000,19.500,47.000L44.500,47.000C45.881,47.000,47.000,45.881,47.000,44.500L47.000,19.500C47.000,18.119,45.881,17.000,44.500,17.000ZZM30.384,35.384L25.384,40.384C25.150,40.619,24.832,40.751,24.500,40.751C24.168,40.751,23.850,40.619,23.616,40.384L21.116,37.884C20.627,37.396,20.627,36.604,21.116,36.116C21.604,35.627,22.396,35.627,22.884,36.116L24.500,37.733L28.616,33.616C29.104,33.127,29.896,33.127,30.384,33.616C30.873,34.104,30.873,34.896,30.384,35.384ZZM30.384,25.384L25.384,30.384C25.150,30.619,24.832,30.751,24.500,30.751C24.168,30.751,23.850,30.619,23.616,30.384L21.116,27.884C20.627,27.396,20.627,26.604,21.116,26.116C21.604,25.627,22.396,25.627,22.884,26.116L24.500,27.733L28.616,23.616C29.104,23.127,29.896,23.127,30.384,23.616C30.873,24.104,30.873,24.896,30.384,25.384ZZM42.000,38.250L34.500,38.250C33.810,38.250,33.250,37.690,33.250,37.000C33.250,36.310,33.810,35.750,34.500,35.750L42.000,35.750C42.690,35.750,43.250,36.310,43.250,37.000C43.250,37.690,42.690,38.250,42.000,38.250ZZM42.000,28.250L34.500,28.250C33.810,28.250,33.250,27.690,33.250,27.000C33.250,26.310,33.810,25.750,34.500,25.750L42.000,25.750C42.690,25.750,43.250,26.310,43.250,27.000C43.250,27.690,42.690,28.250,42.000,28.250ZZ" style="fill: rgb(61, 204, 199); fill-opacity: 1;" class="fills"/></g></g></svg>