<svg width="64" xmlns="http://www.w3.org/2000/svg" height="64" id="screenshot-98584daf-3c7c-8059-8006-08647f2e8cc5" viewBox="0 0 64 64" xmlns:xlink="http://www.w3.org/1999/xlink" fill="none" version="1.1"><g id="shape-98584daf-3c7c-8059-8006-08647f2e8cc5"><defs><clipPath id="frame-clip-98584daf-3c7c-8059-8006-08647f2e8cc5-render-1" class="frame-clip frame-clip-def"><rect rx="0" ry="0" x="0" y="0" width="64" height="64" transform="matrix(1.000000, 0.000000, 0.000000, 1.000000, 0.000000, 0.000000)"/></clipPath></defs><g class="frame-container-wrapper"><g class="frame-container-blur"><g class="frame-container-shadows"><g clip-path="url(#frame-clip-98584daf-3c7c-8059-8006-08647f2e8cc5-render-1)" fill="none"><g class="fills" id="fills-98584daf-3c7c-8059-8006-08647f2e8cc5"><rect width="64" height="64" class="frame-background" x="0" transform="matrix(1.000000, 0.000000, 0.000000, 1.000000, 0.000000, 0.000000)" style="fill: rgb(255, 255, 255); fill-opacity: 1;" ry="0" rx="0" y="0"/></g><g class="frame-children"><g id="shape-98584daf-3c7c-8059-8006-08648dfc84e8" width="32" height="32" rx="0" ry="0" style="fill: rgb(0, 0, 0);"><g id="shape-98584daf-3c7c-8059-8006-08648dfe954c" style="display: none;"><g class="fills" id="fills-98584daf-3c7c-8059-8006-08648dfe954c"><rect width="56" height="56" x="4" transform="matrix(1.000000, 0.000000, 0.000000, 1.000000, 0.000000, 0.000000)" style="fill: rgb(61, 204, 199); fill-opacity: 1;" ry="0" fill="none" rx="0" y="4.00083650446993"/></g></g><g id="shape-98584daf-3c7c-8059-8006-08648dff9a1e"><g class="fills" id="fills-98584daf-3c7c-8059-8006-08648dff9a1e"><path d="M58.408,26.954C58.734,28.833,58.897,30.737,58.894,32.645C58.894,41.164,55.849,48.367,50.550,53.242L50.557,53.242C45.923,57.523,39.553,60.001,32.000,60.001C16.536,60.001,4.000,47.465,4.000,32.001C4.000,16.537,16.536,4.001,32.000,4.001C38.950,3.923,45.661,6.534,50.732,11.288L42.738,19.282C39.848,16.528,35.992,15.020,32.000,15.082C24.696,15.082,18.490,20.010,16.278,26.646C15.107,30.123,15.107,33.889,16.278,37.366L16.289,37.366C18.511,43.992,24.706,48.920,32.010,48.920C35.784,48.920,39.024,47.954,41.538,46.246L41.527,46.246C44.476,44.293,46.498,41.219,47.124,37.737L32.000,37.737L32.000,26.957Z" style="fill: rgb(61, 204, 199); fill-opacity: 1;"/></g></g></g></g></g></g></g></g></g></svg>