<svg width="64" xmlns="http://www.w3.org/2000/svg" height="64" fill="none"><defs><clipPath id="a" class="frame-clip frame-clip-def"><rect rx="0" ry="0" width="64" height="64" transform="matrix(1.000000, 0.000000, 0.000000, 1.000000, 0.000000, 0.000000)"/></clipPath></defs><g class="frame-container-wrapper"><g class="frame-container-blur"><g clip-path="url(#a)" class="frame-container-shadows"><g class="fills"><rect width="64" height="64" class="frame-background" transform="matrix(1.000000, 0.000000, 0.000000, 1.000000, 0.000000, 0.000000)" style="fill: rgb(255, 255, 255); fill-opacity: 1;" ry="0" rx="0"/></g><g style="fill: rgb(0, 0, 0);" class="frame-children"><path d="M32.434,26.486C34.290,23.976,36.342,22.000,38.966,22.000C43.920,22.000,48.000,28.306,48.002,35.814C48.002,40.394,46.030,43.264,42.488,43.264C39.402,43.264,37.698,41.532,34.640,36.416L33.306,34.170L33.070,33.776C32.722,33.188,32.369,32.603,32.010,32.022L29.654,36.182C26.308,42.032,24.424,43.264,21.808,43.264C18.172,43.264,16.000,40.434,16.000,35.946C16.000,28.776,19.990,22.000,25.196,22.000C25.832,21.999,26.448,22.080,27.044,22.244C27.664,22.416,28.266,22.684,28.870,23.058C30.024,23.776,31.178,24.888,32.434,26.486ZM35.466,30.934C34.962,30.115,34.477,29.360,34.012,28.668L34.000,28.652C35.690,26.042,37.086,24.744,38.744,24.744C42.190,24.744,44.948,29.818,44.948,36.050C44.948,38.426,44.168,39.804,42.558,39.804C41.012,39.804,40.274,38.784,37.338,34.064ZM25.692,25.512C27.142,25.712,28.462,26.780,30.372,29.514C29.270,31.202,28.180,32.897,27.102,34.600C24.388,38.852,23.450,39.806,21.940,39.806C20.386,39.806,19.460,38.442,19.460,36.006C19.460,30.802,22.056,25.478,25.152,25.478C25.333,25.478,25.513,25.490,25.692,25.512ZZ" fill-rule="evenodd" style="fill: rgb(61, 204, 199); fill-opacity: 1;" class="fills"/></g></g></g></g></svg>