<svg width="64" xmlns="http://www.w3.org/2000/svg" height="64" id="screenshot-98584daf-3c7c-8059-8006-0863e1e79d6c" viewBox="0 0 64 64" xmlns:xlink="http://www.w3.org/1999/xlink" fill="none" version="1.1"><g id="shape-98584daf-3c7c-8059-8006-0863e1e79d6c"><defs><clipPath id="frame-clip-98584daf-3c7c-8059-8006-0863e1e79d6c-render-1" class="frame-clip frame-clip-def"><rect rx="0" ry="0" x="0" y="0" width="64" height="64" transform="matrix(1.000000, 0.000000, 0.000000, 1.000000, 0.000000, 0.000000)"/></clipPath></defs><g class="frame-container-wrapper"><g class="frame-container-blur"><g class="frame-container-shadows"><g clip-path="url(#frame-clip-98584daf-3c7c-8059-8006-0863e1e79d6c-render-1)" fill="none"><g class="fills" id="fills-98584daf-3c7c-8059-8006-0863e1e79d6c"><rect width="64" height="64" class="frame-background" x="0" transform="matrix(1.000000, 0.000000, 0.000000, 1.000000, 0.000000, 0.000000)" style="fill: rgb(255, 255, 255); fill-opacity: 1;" ry="0" rx="0" y="0"/></g><g class="frame-children"><g id="shape-98584daf-3c7c-8059-8006-0863f6c6b092" width="32" height="32" rx="0" ry="0" style="fill: rgb(0, 0, 0);"><g id="shape-98584daf-3c7c-8059-8006-0863f6cb33e4" style="display: none;"><g class="fills" id="fills-98584daf-3c7c-8059-8006-0863f6cb33e4"><rect width="55.95628415300553" height="56" x="4" transform="matrix(1.000000, 0.000000, 0.000000, 1.000000, 0.000000, 0.000000)" style="fill: rgb(61, 204, 199); fill-opacity: 1;" ry="0" fill="none" rx="0" y="4"/></g></g><g id="shape-98584daf-3c7c-8059-8006-0863f6cbad4a"><g class="fills" id="fills-98584daf-3c7c-8059-8006-0863f6cbad4a"><path d="M51.475,24.519C50.470,24.431,48.546,24.956,47.672,29.244C47.672,31.825,48.284,33.400,49.246,33.969C51.038,34.494,53.137,32.088,53.137,29.506C53.224,27.713,53.311,25.481,51.475,24.519Z" style="fill: rgb(61, 204, 199); fill-opacity: 1;"/></g></g><g id="shape-98584daf-3c7c-8059-8006-0863f6ccb530"><g class="fills" id="fills-98584daf-3c7c-8059-8006-0863f6ccb530"><path d="M54.842,15.287L9.115,15.287C6.273,15.287,4.000,17.563,4.000,20.362L4.000,37.862C4.000,40.662,6.273,42.981,9.115,42.981L54.885,42.981C57.683,42.981,60.000,40.706,60.000,37.862L60.000,20.362C59.956,17.563,57.683,15.287,54.842,15.287ZM23.235,39.000C23.235,39.000,20.219,35.019,19.519,32.000C18.820,29.025,18.645,30.381,18.645,30.381C18.645,30.381,16.240,35.806,13.749,39.263C11.257,42.719,10.033,37.556,10.033,37.556C9.158,36.506,6.667,21.237,6.667,21.237C8.066,17.344,10.470,20.537,10.470,20.537L12.874,32.963C12.874,32.963,16.590,25.350,17.858,23.381C19.082,21.412,21.224,21.981,21.399,23.994C21.574,26.050,23.628,31.606,23.628,31.606C23.803,25.744,26.208,20.144,26.557,19.269C26.907,18.394,30.798,17.300,30.098,21.063C28.393,25.219,26.732,34.013,27.169,38.825C25.989,42.456,23.235,39.000,23.235,39.000ZM38.929,37.031C37.792,37.556,33.552,40.487,30.536,33.925C28.656,27.319,32.852,22.463,32.852,22.463C32.852,22.463,38.317,17.781,42.033,23.994C45.049,30.819,40.066,36.506,38.929,37.031ZM52.831,37.031C51.694,37.556,47.454,40.487,44.437,33.925C42.557,27.319,46.754,22.463,46.754,22.463C46.754,22.463,52.262,17.737,55.978,23.950C58.995,30.819,53.967,36.506,52.831,37.031Z" style="fill: rgb(61, 204, 199); fill-opacity: 1;"/></g></g><g id="shape-98584daf-3c7c-8059-8006-0863f6cd3e4f"><g class="fills" id="fills-98584daf-3c7c-8059-8006-0863f6cd3e4f"><path d="M37.530,24.519C36.525,24.431,34.601,24.956,33.727,29.244C33.727,31.825,34.339,33.400,35.301,33.969C37.093,34.494,39.191,32.088,39.191,29.506C39.322,27.713,39.410,25.481,37.530,24.519ZM30.798,42.981L40.546,48.713L38.492,42.981L32.896,41.406Z" style="fill: rgb(61, 204, 199); fill-opacity: 1;"/></g></g></g></g></g></g></g></g></g></svg>