<svg width="64" xmlns="http://www.w3.org/2000/svg" height="64" fill="none"><g class="fills"><rect rx="0" ry="0" width="64" height="64" transform="matrix(1.000000, 0.000000, 0.000000, 1.000000, 0.000000, 0.000000)" class="frame-background"/></g><g class="frame-children"><rect rx="12" ry="12" transform="matrix(1.000000, 0.000000, 0.000000, 1.000000, 0.000000, 0.000000)" width="64" height="64" style="fill: rgb(231, 249, 248); fill-opacity: 1;" class="fills"/><g class="fills"><rect rx="0" ry="0" x="12" y="12" width="40" height="40" transform="matrix(1.000000, 0.000000, 0.000000, 1.000000, 0.000000, 0.000000)" class="frame-background"/></g><g style="fill: rgb(0, 0, 0);" class="frame-children"><path d="M46.452,41.817C46.805,42.169,47.003,42.647,47.003,43.145C47.003,43.644,46.805,44.122,46.452,44.473L44.469,46.452C44.117,46.805,43.639,47.003,43.141,47.003C42.642,47.003,42.164,46.805,41.812,46.452L32.975,37.612L29.969,45.452C29.969,45.467,29.956,45.484,29.948,45.502C29.557,46.413,28.659,47.003,27.667,47.000L27.544,47.000C26.507,46.956,25.608,46.270,25.292,45.281L17.125,20.269C16.839,19.377,17.076,18.400,17.738,17.738C18.400,17.076,19.377,16.839,20.269,17.125L45.281,25.292C46.260,25.620,46.937,26.514,46.985,27.545C47.034,28.575,46.445,29.530,45.502,29.948L45.452,29.969L37.613,32.980ZM27.000,17.000C27.690,17.000,28.250,16.440,28.250,15.750L28.250,14.500C28.250,13.810,27.690,13.250,27.000,13.250C26.310,13.250,25.750,13.810,25.750,14.500L25.750,15.750C25.750,16.440,26.310,17.000,27.000,17.000ZZM14.500,28.250L15.750,28.250C16.440,28.250,17.000,27.690,17.000,27.000C17.000,26.310,16.440,25.750,15.750,25.750L14.500,25.750C13.810,25.750,13.250,26.310,13.250,27.000C13.250,27.690,13.810,28.250,14.500,28.250ZZM31.441,18.119C31.737,18.267,32.081,18.292,32.396,18.187C32.710,18.082,32.971,17.856,33.119,17.559L34.369,15.059C34.678,14.442,34.428,13.691,33.810,13.382C33.193,13.073,32.442,13.323,32.133,13.941L30.883,16.441C30.734,16.737,30.709,17.081,30.814,17.395C30.919,17.710,31.144,17.970,31.441,18.119ZZM16.441,30.883L13.941,32.133C13.323,32.442,13.073,33.193,13.382,33.810C13.691,34.428,14.442,34.678,15.059,34.369L17.559,33.119C17.959,32.919,18.221,32.521,18.248,32.075C18.275,31.630,18.061,31.203,17.689,30.957C17.316,30.711,16.840,30.683,16.441,30.883ZZ" style="fill: rgb(61, 204, 199); fill-opacity: 1;" class="fills"/></g></g></svg>