<svg width="64" xmlns="http://www.w3.org/2000/svg" height="64" fill="none"><defs><clipPath id="a" class="frame-clip frame-clip-def"><rect rx="0" ry="0" width="64" height="64" transform="matrix(1.000000, 0.000000, 0.000000, 1.000000, 0.000000, 0.000000)"/></clipPath></defs><g class="frame-container-wrapper"><g class="frame-container-blur"><g clip-path="url(#a)" class="frame-container-shadows"><g class="fills"><rect width="64" height="64" class="frame-background" transform="matrix(1.000000, 0.000000, 0.000000, 1.000000, 0.000000, 0.000000)" style="fill: rgb(255, 255, 255); fill-opacity: 1;" ry="0" rx="0"/></g><g style="fill: rgb(0, 0, 0);" class="frame-children"><path d="M41.266,31.306C41.266,29.610,40.656,28.436,40.134,27.522L39.974,27.262C39.340,26.242,38.786,25.346,38.786,24.302C38.786,23.042,39.742,21.866,41.090,21.866C41.130,21.866,41.169,21.868,41.206,21.872L41.268,21.878C38.740,19.557,35.432,18.270,32.000,18.274C27.380,18.273,23.069,20.599,20.532,24.460C20.852,24.470,21.158,24.478,21.416,24.478C22.850,24.478,25.072,24.304,25.072,24.304C25.812,24.260,25.900,25.346,25.160,25.434C25.160,25.434,24.418,25.522,23.590,25.564L28.590,40.432L31.590,31.420L29.450,25.562C28.712,25.518,28.012,25.432,28.012,25.432C27.272,25.388,27.360,24.256,28.098,24.300C28.098,24.300,30.366,24.474,31.714,24.474C33.150,24.474,35.374,24.300,35.374,24.300C36.114,24.256,36.200,25.344,35.460,25.432C35.460,25.432,34.716,25.518,33.890,25.562L38.850,40.316L40.218,35.742L40.326,35.396C40.866,33.676,41.264,32.406,41.266,31.306ZZM18.274,32.000C18.272,37.260,21.277,42.058,26.010,44.352L19.460,26.412C18.674,28.170,18.269,30.074,18.274,32.000Z" style="fill: rgb(61, 204, 199); fill-opacity: 1;" class="fills"/><path d="M28.122,45.166L32.242,33.200L36.460,44.760C36.487,44.827,36.519,44.889,36.558,44.948C33.839,45.906,30.887,45.983,28.122,45.166ZM44.042,25.414C44.103,25.851,44.135,26.322,44.136,26.826C44.136,28.218,43.876,29.784,43.092,31.742L38.900,43.862C45.333,40.124,47.615,31.941,44.042,25.414ZZ" style="fill: rgb(61, 204, 199); fill-opacity: 1;" class="fills"/><path d="M16.000,32.000C16.000,23.178,23.178,16.000,32.000,16.000C40.822,16.000,48.000,23.178,48.000,32.000C48.000,40.822,40.820,48.000,32.000,48.000C23.180,48.000,16.000,40.822,16.000,32.000ZM16.734,32.000C16.734,40.418,23.582,47.266,32.000,47.266C40.418,47.266,47.264,40.418,47.264,32.000C47.264,23.580,40.416,16.734,32.000,16.734C23.580,16.734,16.734,23.580,16.734,32.000Z" fill-rule="evenodd" style="fill: rgb(61, 204, 199); fill-opacity: 1;" class="fills"/></g></g></g></g></svg>